<svg xmlns="http://www.w3.org/2000/svg" width="25" height="43" viewBox="0 0 25 43" fill="none">
  <path d="M3.27896 22.6336C2.86029 22.1208 2.61008 21.4692 2.61008 20.7558C2.61008 20.2999 2.71165 19.8689 2.89497 19.4824C3.07829 19.0959 3.34337 18.7565 3.66542 18.484C3.74717 18.4147 3.83388 18.3478 3.92554 18.2883C4.05684 18.2016 4.19557 18.1223 4.33926 18.0555L10.9191 15.0158C12.4971 14.2874 13.5079 12.7069 13.5079 10.9678V4.98749C13.5079 3.3475 14.8457 1.9255 16.4856 1.92798C17.3056 1.93046 18.0464 2.25994 18.584 2.79753C19.1215 3.33511 19.4535 4.07831 19.4535 4.90079V17.7829H19.456H20.4469C22.0894 17.7829 23.4197 19.1133 23.4197 20.7558C23.4197 21.5782 23.0878 22.3214 22.5502 22.859C22.0126 23.3966 21.2694 23.7286 20.4469 23.7286C22.0894 23.7286 23.4197 25.0589 23.4197 26.7014C23.4197 27.5238 23.0878 28.267 22.5502 28.8046C22.0126 29.3422 21.2694 29.6742 20.4469 29.6742H19.456C21.0985 29.6742 22.4288 31.0045 22.4288 32.647C22.4288 33.4695 22.0968 34.2127 21.5592 34.7502C21.0217 35.2878 20.2785 35.6198 19.456 35.6198H18.465C20.1075 35.6198 21.4379 36.9501 21.4379 38.5926C21.4379 39.4151 21.1059 40.1583 20.5683 40.6959C20.0307 41.2334 19.2875 41.5654 18.465 41.5654H7.56475C5.92228 41.5654 4.59195 40.2351 4.59195 38.5926C4.59195 38.3994 4.60929 38.2111 5.09237 36.9402M3.27896 22.6336C3.28143 22.6385 3.28639 22.6435 3.28887 22.6484M3.27896 22.6336L3.33594 22.7029M3.27896 22.6336C3.27896 22.6336 3.28639 22.6435 3.28887 22.6484M3.28887 22.6484C3.30373 22.6658 3.31859 22.6856 3.33594 22.7029M3.33594 22.7029C3.46228 22.8689 3.53908 23.077 3.53908 23.3049C3.53908 23.6443 3.36814 23.9441 3.10802 24.1249M3.10802 24.1249C3.10802 24.1249 3.10637 24.1258 3.10307 24.1274M3.10802 24.1249L3.0114 24.1819M3.10802 24.1249C3.10802 24.1249 3.10554 24.1249 3.10307 24.1274M3.10307 24.1274C3.07582 24.1448 3.04857 24.1621 3.02131 24.177C3.01884 24.177 3.01388 24.1794 3.0114 24.1819M3.0114 24.1819C2.82065 24.3008 2.64724 24.4396 2.48869 24.5981C1.9511 25.1357 1.61914 25.8789 1.61914 26.7014C1.61914 27.7641 2.17406 28.6956 3.0114 29.2208M3.0114 29.2208C3.04361 29.2382 3.07582 29.258 3.10802 29.2778M3.0114 29.2208L3.10802 29.2778M3.10802 29.2778C3.36814 29.4586 3.53908 29.7584 3.53908 30.0978C3.53908 30.3257 3.46228 30.5338 3.33594 30.6998M3.33594 30.6998H3.33346M3.33594 30.6998L3.27896 30.7692M3.33346 30.6998C3.32107 30.7196 3.30621 30.737 3.28887 30.7543M3.33346 30.6998C3.31612 30.7196 3.30373 30.737 3.28887 30.7543M3.28887 30.7543C3.28639 30.7592 3.28143 30.7642 3.27896 30.7692M3.27896 30.7692C2.72899 31.6907 2.61008 32.154 2.61008 32.647C2.61008 33.9302 3.42264 35.0227 4.55974 35.4389C4.55974 35.4414 4.56222 35.4414 4.5647 35.4414M4.5647 35.4414H4.55974M4.5647 35.4414C4.9685 35.5678 5.26083 35.9418 5.26083 36.3878C5.26083 36.5884 5.20137 36.7742 5.0998 36.9303M5.0998 36.9303C5.09732 36.9303 5.09485 36.9377 5.09237 36.9402M5.0998 36.9303L5.09237 36.9402M5.0998 36.9303C5.0998 36.9303 5.09485 36.9377 5.09237 36.9402" stroke="black" stroke-width="1.98187" stroke-linecap="round" stroke-linejoin="round"/>
</svg>