<svg xmlns="http://www.w3.org/2000/svg" width="32" height="33" viewBox="0 0 32 33" fill="none">
  <path d="M29.3327 13.8334H2.66602M2.66602 11.4334L2.66602 21.5667C2.66602 23.0602 2.66602 23.807 2.95666 24.3774C3.21233 24.8792 3.62028 25.2871 4.12204 25.5428C4.69247 25.8334 5.43921 25.8334 6.93268 25.8334L25.066 25.8334C26.5595 25.8334 27.3062 25.8334 27.8767 25.5428C28.3784 25.2871 28.7864 24.8792 29.042 24.3774C29.3327 23.807 29.3327 23.0602 29.3327 21.5667V11.4334C29.3327 9.93994 29.3327 9.19321 29.042 8.62278C28.7864 8.12101 28.3784 7.71306 27.8767 7.4574C27.3062 7.16675 26.5595 7.16675 25.066 7.16675L6.93268 7.16675C5.43921 7.16675 4.69247 7.16675 4.12204 7.4574C3.62028 7.71306 3.21233 8.12101 2.95667 8.62277C2.66602 9.1932 2.66602 9.93994 2.66602 11.4334Z" stroke="#0B0427" stroke-width="2" stroke-linecap="round" stroke-linejoin="round"/>
</svg>