<svg width="36" height="37" viewBox="0 0 36 37" fill="none" xmlns="http://www.w3.org/2000/svg">
<path d="M22.3946 14.8655C22.3946 17.3785 20.6586 19.1145 18.1456 19.1145C15.6325 19.1145 13.8965 17.3785 13.8965 14.8655" stroke="black" stroke-width="1.78037" stroke-linecap="round" stroke-linejoin="round"/>
<path d="M22.3945 14.5619C22.3945 17.075 24.4341 19.1145 26.9471 19.1145C29.187 19.1145 31.0505 17.4938 31.4268 15.3632C31.5118 14.9019 31.4632 14.4223 31.3418 13.961L29.0656 5.14722H7.82627L5.02189 14.131C4.82764 14.7501 4.77301 15.4239 4.95512 16.0491C5.48322 17.9066 7.24961 19.1145 9.3438 19.1145C11.8568 19.1145 13.8964 17.075 13.8964 14.5619" stroke="black" stroke-width="1.78037" stroke-linecap="round" stroke-linejoin="round"/>
<path d="M29.0477 20.9355V28.2197C29.0477 30.2289 27.4148 31.8617 25.4056 31.8617H10.8374C8.82817 31.8617 7.19531 30.2289 7.19531 28.2197V20.9355" stroke="black" stroke-width="1.78037" stroke-linecap="round" stroke-linejoin="round"/>
<path d="M24.191 20.9355V27.0056H12.0508V20.9355" stroke="black" stroke-width="1.78037" stroke-linecap="round" stroke-linejoin="round"/>
</svg>
