<svg width="36" height="37" viewBox="0 0 36 37" fill="none" xmlns="http://www.w3.org/2000/svg">
<path d="M13.4712 16.9253H7.44531" stroke="black" stroke-width="1.78037" stroke-linecap="round" stroke-linejoin="round"/>
<path d="M14.9766 30.4835H24.0154V16.9253H17.9895" stroke="black" stroke-width="1.78037" stroke-linecap="round" stroke-linejoin="round"/>
<path d="M26.2753 30.4836H24.0156V19.1851H30.0415L33.8077 25.2109V30.4836H30.7947" stroke="black" stroke-width="1.78037" stroke-linejoin="round"/>
<path d="M28.5351 32.7433C29.7831 32.7433 30.7948 31.7316 30.7948 30.4836C30.7948 29.2356 29.7831 28.2239 28.5351 28.2239C27.2871 28.2239 26.2754 29.2356 26.2754 30.4836C26.2754 31.7316 27.2871 32.7433 28.5351 32.7433Z" stroke="black" stroke-width="1.78037" stroke-linejoin="round"/>
<path d="M12.7187 32.7433C13.9667 32.7433 14.9784 31.7316 14.9784 30.4836C14.9784 29.2356 13.9667 28.2239 12.7187 28.2239C11.4707 28.2239 10.459 29.2356 10.459 30.4836C10.459 31.7316 11.4707 32.7433 12.7187 32.7433Z" stroke="black" stroke-width="1.78037" stroke-linejoin="round"/>
<path d="M4.43164 19.9385H9.70429" stroke="black" stroke-width="1.78037" stroke-linecap="round" stroke-linejoin="round"/>
<path d="M3.67773 26.7173H8.95038" stroke="black" stroke-width="1.78037" stroke-linecap="round" stroke-linejoin="round"/>
<path d="M5.9375 30.4834H9.70368" stroke="black" stroke-width="1.78037" stroke-linecap="round" stroke-linejoin="round"/>
<path d="M6.69141 22.9512H9.70435" stroke="black" stroke-width="1.78037" stroke-linecap="round" stroke-linejoin="round"/>
<path d="M2.17188 22.9512H3.67835" stroke="black" stroke-width="1.78037" stroke-linecap="round" stroke-linejoin="round"/>
<path d="M21.7568 9.48321C21.7568 6.10872 19.0603 3.36694 15.731 3.36694C12.4017 3.36694 9.70508 6.10119 9.70508 9.48321C9.70508 10.9746 10.2549 12.3229 11.1287 13.385L13.6294 16.8423L15.731 19.9381L20.3332 13.385C21.207 12.3229 21.7568 10.9746 21.7568 9.48321Z" stroke="black" stroke-width="1.78037" stroke-miterlimit="10"/>
<path d="M15.7304 11.3136C14.5705 11.3136 13.6289 10.357 13.6289 9.18195C13.6289 8.0069 14.5705 7.05029 15.7304 7.05029C16.8904 7.05029 17.832 8.0069 17.832 9.18195C17.832 10.357 16.8904 11.3136 15.7304 11.3136Z" stroke="black" stroke-width="1.78037" stroke-miterlimit="10"/>
<path d="M33.8096 25.2107H24.0176" stroke="black" stroke-width="1.78037" stroke-linejoin="round"/>
</svg>
