<svg width="36" height="37" viewBox="0 0 36 37" fill="none" xmlns="http://www.w3.org/2000/svg">
<path d="M31.1034 6.03735H6.17815C4.45743 6.03735 3.0625 7.43228 3.0625 9.15301V27.8469C3.0625 29.5677 4.45743 30.9626 6.17815 30.9626H31.1034C32.8241 30.9626 34.219 29.5677 34.219 27.8469V9.15301C34.219 7.43228 32.8241 6.03735 31.1034 6.03735Z" stroke="black" stroke-width="1.78037" stroke-miterlimit="10"/>
<path d="M15.5254 22.3946V14.6055L21.7567 18.5L15.5254 22.3946Z" stroke="black" stroke-width="1.78037" stroke-linejoin="round"/>
<path d="M6.95703 10.7109H10.0727" stroke="black" stroke-width="1.78037" stroke-miterlimit="10"/>
<path d="M13.9668 10.7109H17.0825" stroke="black" stroke-width="1.78037" stroke-miterlimit="10"/>
<path d="M20.1992 10.7109H23.3149" stroke="black" stroke-width="1.78037" stroke-miterlimit="10"/>
<path d="M27.209 10.7109H30.3246" stroke="black" stroke-width="1.78037" stroke-miterlimit="10"/>
<path d="M6.95703 26.2891H10.0727" stroke="black" stroke-width="1.78037" stroke-miterlimit="10"/>
<path d="M13.9668 26.2891H17.0825" stroke="black" stroke-width="1.78037" stroke-miterlimit="10"/>
<path d="M20.1992 26.2891H23.3149" stroke="black" stroke-width="1.78037" stroke-miterlimit="10"/>
<path d="M27.209 26.2891H30.3246" stroke="black" stroke-width="1.78037" stroke-miterlimit="10"/>
</svg>
