<svg xmlns="http://www.w3.org/2000/svg" width="163" height="250" viewBox="0 0 163 250" fill="none">
  <path fill-rule="evenodd" clip-rule="evenodd" d="M90.0525 0.225298C90.1816 0.225435 90.3106 0.225786 90.4396 0.22632L90.4396 249.773C90.263 249.774 90.0862 249.774 89.9094 249.774C20.9983 249.774 -34.8652 193.911 -34.8652 125C-34.8652 56.0887 20.9983 0.22522 89.9094 0.225221L90.0525 0.225298ZM215.22 0.224856C215.397 0.224856 215.573 0.225223 215.75 0.225955L215.75 249.773C215.573 249.774 215.397 249.774 215.22 249.774C146.309 249.774 90.4453 193.911 90.4453 124.999C90.4453 56.0883 146.309 0.224856 215.22 0.224856Z" fill="#7A7AFE" fill-opacity="0.4"/>
</svg>