<svg width="1801" height="50" viewBox="0 0 1801 50" fill="none" xmlns="http://www.w3.org/2000/svg">
<path d="M1575.22 12.0207C1584.55 12.0207 1588.6 15.7979 1588.6 24.6114V40H1561.88V12.0207H1575.22ZM1567.29 35.3834H1583.19V25.0311C1583.19 19.1554 1580.72 16.6373 1575.17 16.6373H1567.29V35.3834ZM1594.31 12.0207H1599.71V27.829L1594.31 28.715V12.0207ZM1609.75 12.0207L1619.41 25.2642C1622.58 23.5855 1624.21 19.5285 1623.98 12.0207H1629.2C1629.48 21.4404 1627.06 26.6632 1622.07 28.9482L1629.76 39.5337V40H1605.37V35.3834H1620.9L1603.74 12.2073V12.0207H1609.75ZM1639.39 12.0207H1657.95V12.5337L1647.5 40H1641.77V39.7668L1650.77 16.6373H1633.98V7.35751H1639.39V12.0207ZM1660.72 12.0207H1666.04L1668.7 20.4145C1670.66 15.2383 1674.43 11.601 1679.61 11.601C1687.21 11.601 1692.29 17.4767 1692.29 25.8705C1692.29 37.5751 1685.25 42.9845 1674.48 38.9275L1675.69 34.544C1683.25 37.5751 1687.21 34.0777 1687.21 25.8705C1687.21 19.9948 1684.09 16.3575 1679.84 16.3575C1675.32 16.3575 1672.8 20.5544 1671.08 26.943L1667.58 40H1662.22L1665.81 26.9896L1660.72 12.0207ZM1703.56 12.0207V40H1698.15V12.0207H1703.56ZM1708.71 12.0207H1714.03L1716.69 20.4145C1718.65 15.2383 1722.42 11.601 1727.6 11.601C1735.2 11.601 1740.28 17.4767 1740.28 25.8705C1740.28 37.5751 1733.24 42.9845 1722.47 38.9275L1723.68 34.544C1731.24 37.5751 1735.2 34.0777 1735.2 25.8705C1735.2 19.9948 1732.08 16.3575 1727.83 16.3575C1723.31 16.3575 1720.79 20.5544 1719.07 26.943L1715.57 40H1710.21L1713.8 26.9896L1708.71 12.0207Z" fill="#0B0427"/>
<path d="M1780 41L1779.97 40.9791L1759.5 28.9681C1762.2 26.2986 1767.95 24.2266 1774.39 23.4961L1759.5 14.7583C1762.96 11.3287 1771.48 8.88585 1780 9.00412C1788.52 8.88585 1797.04 11.3299 1800.5 14.7583L1785.61 23.4961C1792.05 24.2278 1797.81 26.2998 1800.5 28.9681L1780.03 40.9791L1780 41Z" fill="#3F3FEA"/>
</svg>
