<svg width="99" height="16" viewBox="0 0 99 16" fill="none" xmlns="http://www.w3.org/2000/svg">
<path d="M51.9618 3.85073H48.032C48.0077 3.85073 47.9879 3.8705 47.9879 3.89478L47.9892 5.88451C47.9894 5.90879 48.009 5.92855 48.0335 5.92855L52.5606 5.92533C53.9105 5.92447 54.7188 6.75947 54.7199 8.0977L54.7238 13.7592C54.7238 13.7835 54.7435 13.8032 54.7678 13.8032H56.8993C56.9236 13.8032 56.9434 13.7835 56.9434 13.759L56.94 8.7118C56.938 6.02417 55.548 3.84837 51.9618 3.85073Z" fill="#101820"/>
<path d="M17.2163 3.85073H13.2865C13.2622 3.85073 13.2424 3.8705 13.2424 3.89478L13.2437 5.88451C13.2439 5.90879 13.2635 5.92855 13.288 5.92855L17.8151 5.92533C19.165 5.92447 19.9733 6.75947 19.9744 8.0977L19.9783 13.7592C19.9783 13.7835 19.998 13.8032 20.0223 13.8032H22.1539C22.1781 13.8032 22.1979 13.7835 22.1979 13.759L22.1945 8.7118C22.1925 6.02417 20.8025 3.84837 17.2163 3.85073Z" fill="#101820"/>
<path d="M45.838 3.85073C45.5484 3.85073 43.7391 3.85073 43.4432 3.85073C43.4198 3.85073 43.4022 3.87028 43.4022 3.89371C43.4024 6.41008 43.2509 8.1613 41.4692 8.1613L37.7833 3.88447C37.7646 3.86298 37.7377 3.85073 37.7096 3.85073H34.7246C34.6988 3.85073 34.6848 3.88103 34.7018 3.90037L38.3686 8.11553C35.8056 8.11725 34.8475 10.3579 34.8414 13.7581C34.8414 13.7826 34.8614 13.8032 34.8859 13.8032H37.3243C37.3486 13.8032 37.3684 13.7852 37.3684 13.7607C37.3703 12.5617 37.4956 9.07193 39.1423 9.07193L43.2885 13.7701C43.307 13.7912 43.3337 13.8032 43.3616 13.8032H46.2789C46.3045 13.8032 46.3185 13.7729 46.3015 13.7536L42.2788 9.0917C44.3807 9.0902 46.1163 8.04291 45.8795 3.89177C45.8782 3.86921 45.8606 3.85073 45.838 3.85073Z" fill="#101820"/>
<path d="M76.8373 3.85121H74.5815C74.557 3.85121 74.5373 3.87098 74.5375 3.89526L74.5413 9.52214C74.5413 9.54664 74.5611 9.56641 74.5854 9.56641L76.8411 9.56469C76.8656 9.56469 76.8852 9.54492 76.8852 9.52064L76.8813 3.89526C76.8813 3.87098 76.8615 3.85121 76.8373 3.85121Z" fill="#101820"/>
<path d="M28.4476 3.85073H24.5178C24.4935 3.85073 24.4738 3.8705 24.4738 3.89478L24.475 5.88579C24.475 5.91008 24.4948 5.92984 24.5193 5.92984L27.3604 5.92791C30.2255 5.92576 31.3817 5.70014 31.3839 8.81645C31.3856 11.6038 29.5787 11.7222 28.011 11.7233L24.5234 11.711C24.4991 11.711 24.4791 11.7308 24.4791 11.7551L24.4806 13.7592C24.4806 13.7835 24.5004 13.8032 24.5247 13.8032H27.8301C31.048 13.8009 33.6001 12.3204 33.5975 8.66131C33.5955 5.86667 31.6797 3.84858 28.4476 3.85073Z" fill="#101820"/>
<path d="M7.39226 3.85087H5.61354C5.58926 3.85087 5.56949 3.87064 5.56949 3.89492L5.57078 5.90054C5.57078 5.92482 5.59055 5.94459 5.61504 5.94459L7.5315 5.9433C8.63616 5.94244 9.53175 6.49939 9.53282 8.03423C9.5339 9.56907 9.54335 11.9875 6.1692 11.9898C3.02367 11.992 2.76669 9.92383 2.73961 8.73085C2.70394 7.15089 2.76561 4.38956 2.77442 4.01073C2.77507 3.98581 2.75508 3.96712 2.73037 3.96712L0.709492 3.9684C0.6865 3.96862 0.667376 3.98474 0.665657 4.00751C0.640302 4.33004 0.470983 6.59523 0.550486 8.85011C0.65298 11.7502 1.91901 14.0653 6.17049 14.0625C11.1727 14.0591 11.7847 10.7898 11.783 8.28349C11.7806 4.69446 9.34739 3.84958 7.39226 3.85087Z" fill="#101820"/>
<path d="M72.436 7.91258C72.3644 9.97601 71.7495 11.5098 70.6143 12.5308C69.477 13.55 67.8216 14.0547 65.6711 14.0586C61.37 14.0567 59.0436 12.0493 58.8986 7.92225C58.8451 6.4667 58.882 5.01244 58.9295 3.8923C58.9306 3.86867 58.9499 3.85083 58.9735 3.85083H61.0387C61.0634 3.85083 61.0834 3.86996 61.083 3.89467C61.0559 5.1852 61.02 7.6268 61.1844 8.51014C62.4124 8.69386 63.1395 8.60297 63.6773 8.27808C64.5177 7.7684 64.5873 6.60594 64.5882 3.89574C64.5882 3.87146 64.6077 3.85083 64.6322 3.85083H66.9829C67.0068 3.85083 67.0263 3.87082 67.027 3.89467C67.1168 7.30943 66.9062 8.08469 65.8181 9.00714C64.5998 10.0418 62.7663 9.88125 61.488 9.81743C62.0043 11.0611 63.2575 11.9507 65.6692 11.9507C69.657 11.9507 70.1018 9.11351 70.1734 7.78688C70.2288 6.76408 70.2086 5.16091 70.18 3.8951C70.1796 3.87039 70.1994 3.85083 70.2241 3.85083H72.3569C72.3805 3.85083 72.4001 3.86867 72.401 3.8923C72.4484 5.00707 72.4856 6.47422 72.436 7.91258Z" fill="#101820"/>
<path d="M92.6502 8.07841L98.1054 11.055C98.3297 11.1775 98.3297 11.4996 98.1054 11.6219L91.1083 15.4397C90.8773 15.5657 90.5982 15.5657 90.3672 15.4397L83.3701 11.6219C83.1457 11.4996 83.1457 11.1775 83.3701 11.055L88.8253 8.07841C88.8865 8.0451 88.8865 7.95722 88.8253 7.9237L83.3698 4.94556C83.1457 4.82308 83.1457 4.5012 83.3701 4.37872L90.3672 0.561071C90.5982 0.434941 90.8773 0.434941 91.1083 0.561071L98.1056 4.37872C98.3299 4.5012 98.3299 4.82308 98.1056 4.94556L92.6502 7.9237C92.589 7.95722 92.589 8.0451 92.6502 8.07841Z" fill="#101820"/>
</svg>
