<svg width="32" height="33" viewBox="0 0 32 33" fill="none" xmlns="http://www.w3.org/2000/svg">
<path d="M10 25.5C10 24.3954 10.8954 23.5 12 23.5C13.1046 23.5 14 24.3954 14 25.5C14 26.6046 13.1046 27.5 12 27.5C10.8954 27.5 10 26.6046 10 25.5Z" fill="#0B0427"/>
<path d="M22 25.5C22 24.3954 22.6716 23.5 23.5 23.5C24.3284 23.5 25 24.3954 25 25.5C25 26.6046 24.3284 27.5 23.5 27.5C22.6716 27.5 22 26.6046 22 25.5Z" fill="#0B0427"/>
<path d="M3 6.5H5.54364C5.75153 6.5 5.93774 6.62864 6.01129 6.82309L10.6962 19.2076C10.9905 19.9854 11.7353 20.5 12.5669 20.5H23.721C24.5749 20.5 25.3346 19.9579 25.6123 19.1504L28.7721 9.96261C28.8838 9.63799 28.6426 9.3 28.2993 9.3H13.111" stroke="#0B0427" stroke-width="2" stroke-linecap="round" stroke-linejoin="round"/>
</svg>
