<svg width="68" height="11" viewBox="0 0 68 11" fill="none" xmlns="http://www.w3.org/2000/svg">
<path d="M35.4364 2.95647H32.7354C32.7187 2.95647 32.7051 2.97006 32.7051 2.98675L32.706 4.35435C32.7061 4.37103 32.7196 4.38462 32.7364 4.38462L35.848 4.38241C36.7758 4.38182 37.3314 4.95573 37.3322 5.87554L37.3348 9.76684C37.3348 9.78353 37.3484 9.79712 37.3651 9.79712H38.8302C38.8469 9.79712 38.8605 9.78353 38.8605 9.7667L38.8581 6.29763C38.8568 4.45034 37.9014 2.95485 35.4364 2.95647Z" fill="white"/>
<path d="M11.5556 2.95647H8.85449C8.83781 2.95647 8.82422 2.97006 8.82422 2.98675L8.8251 4.35435C8.82525 4.37103 8.83869 4.38462 8.85553 4.38462L11.9672 4.38241C12.895 4.38182 13.4506 4.95573 13.4513 5.87554L13.454 9.76684C13.454 9.78353 13.4676 9.79712 13.4842 9.79712H14.9493C14.966 9.79712 14.9796 9.78353 14.9796 9.7667L14.9772 6.29763C14.9759 4.45034 14.0205 2.95485 11.5556 2.95647Z" fill="white"/>
<path d="M31.2277 2.95647C31.0287 2.95647 29.7851 2.95647 29.5817 2.95647C29.5656 2.95647 29.5535 2.96991 29.5535 2.98601C29.5537 4.71559 29.4496 5.91926 28.2249 5.91926L25.6915 2.97966C25.6786 2.96489 25.6602 2.95647 25.6408 2.95647H23.5891C23.5714 2.95647 23.5618 2.97729 23.5735 2.99059L26.0938 5.8878C24.3322 5.88898 23.6736 7.42908 23.6695 9.7661C23.6695 9.78294 23.6832 9.79712 23.7 9.79712H25.376C25.3927 9.79712 25.4063 9.78471 25.4063 9.76788C25.4076 8.94377 25.4937 6.54516 26.6256 6.54516L29.4754 9.77438C29.4881 9.78885 29.5064 9.79712 29.5256 9.79712H31.5308C31.5484 9.79712 31.558 9.7763 31.5463 9.763L28.7814 6.55875C30.2261 6.55771 31.419 5.83788 31.2562 2.98468C31.2554 2.96917 31.2432 2.95647 31.2277 2.95647Z" fill="white"/>
<path d="M52.5338 2.95654H50.9834C50.9666 2.95654 50.953 2.97013 50.9531 2.98682L50.9558 6.85434C50.9558 6.87118 50.9694 6.88477 50.9861 6.88477L52.5365 6.88358C52.5533 6.88358 52.5668 6.87 52.5668 6.85331L52.5641 2.98682C52.5641 2.97013 52.5505 2.95654 52.5338 2.95654Z" fill="white"/>
<path d="M19.2743 2.95647H16.5732C16.5566 2.95647 16.543 2.97006 16.543 2.98675L16.5439 4.35523C16.5439 4.37192 16.5574 4.38551 16.5743 4.38551L18.527 4.38418C20.4963 4.3827 21.291 4.22763 21.2925 6.36956C21.2937 8.28538 20.0518 8.36675 18.9742 8.36749L16.5771 8.35907C16.5604 8.35907 16.5467 8.37266 16.5467 8.38935L16.5477 9.76684C16.5477 9.78353 16.5613 9.79712 16.578 9.79712H18.8499C21.0617 9.79549 22.8158 8.77792 22.814 6.26293C22.8127 4.34209 21.4959 2.95499 19.2743 2.95647Z" fill="white"/>
<path d="M4.80297 2.95658H3.58041C3.56372 2.95658 3.55013 2.97017 3.55013 2.98686L3.55102 4.36538C3.55102 4.38207 3.5646 4.39566 3.58144 4.39566L4.89868 4.39477C5.65794 4.39418 6.27351 4.77699 6.27425 5.83193C6.27499 6.88687 6.28149 8.54911 3.96233 8.55073C1.80031 8.55221 1.62368 7.13071 1.60507 6.31074C1.58055 5.22478 1.62294 3.32684 1.629 3.06646C1.62944 3.04933 1.6157 3.03648 1.59872 3.03648L0.209707 3.03737C0.193904 3.03751 0.18076 3.04859 0.179578 3.06424C0.162151 3.28593 0.0457724 4.84286 0.100417 6.39271C0.170865 8.38606 1.04105 9.97726 3.96322 9.97534C7.40141 9.97298 7.82203 7.72589 7.82085 6.00325C7.81922 3.53641 6.14679 2.95569 4.80297 2.95658Z" fill="white"/>
<path d="M49.5103 5.74819C49.4611 7.16645 49.0384 8.22065 48.2582 8.92247C47.4765 9.62295 46.3387 9.96988 44.8606 9.97253C41.9043 9.9712 40.3053 8.5915 40.2056 5.75484C40.1688 4.7544 40.1942 3.75484 40.2269 2.98494C40.2276 2.96869 40.2409 2.95643 40.2572 2.95643H41.6766C41.6936 2.95643 41.7073 2.96958 41.707 2.98656C41.6884 3.87358 41.6637 5.55177 41.7767 6.15892C42.6208 6.28519 43.1206 6.22272 43.4902 5.99941C44.0678 5.64909 44.1157 4.8501 44.1163 2.9873C44.1163 2.97061 44.1297 2.95643 44.1465 2.95643H45.7623C45.7787 2.95643 45.7921 2.97017 45.7925 2.98656C45.8543 5.33363 45.7095 5.86649 44.9616 6.50052C44.1242 7.21164 42.864 7.10132 41.9854 7.05745C42.3403 7.91228 43.2016 8.52371 44.8593 8.52371C47.6002 8.52371 47.906 6.57363 47.9551 5.6618C47.9932 4.9588 47.9794 3.85689 47.9597 2.98686C47.9594 2.96987 47.973 2.95643 47.99 2.95643H49.456C49.4722 2.95643 49.4856 2.96869 49.4862 2.98494C49.5189 3.75115 49.5444 4.75956 49.5103 5.74819Z" fill="white"/>
<path d="M63.4043 5.86224L67.1539 7.90817C67.3081 7.99235 67.3081 8.21374 67.1539 8.29777L62.3445 10.9219C62.1858 11.0085 61.9939 11.0085 61.8352 10.9219L57.0258 8.29777C56.8716 8.21374 56.8716 7.99235 57.0258 7.90817L60.7753 5.86224C60.8174 5.83935 60.8174 5.77894 60.7753 5.7559L57.0257 3.70894C56.8716 3.62475 56.8716 3.40352 57.0258 3.31933L61.8352 0.695346C61.9939 0.608653 62.1858 0.608653 62.3445 0.695346L67.154 3.31933C67.3082 3.40352 67.3082 3.62475 67.154 3.70894L63.4043 5.7559C63.3623 5.77894 63.3623 5.83935 63.4043 5.86224Z" fill="white"/>
</svg>
