<svg width="335" height="69" viewBox="0 0 335 69" fill="none" xmlns="http://www.w3.org/2000/svg">
<path d="M163.78 29.6736H168.816C172.003 29.6736 173.34 30.9948 173.34 34.1969V39H171.537V34.1969C171.537 32.1606 170.728 31.2124 168.785 31.2124H166.842V36.7927C166.842 38.3782 165.941 39.0933 164.728 39.0933C164.153 39.0933 163.329 38.9845 162.879 38.8135L163.127 37.399C163.423 37.4922 163.734 37.5699 164.153 37.5699C164.806 37.5699 165.055 37.1813 165.055 36.2798V31.2124H163.78V29.6736ZM176.731 29.6736H178.534V39H176.731V29.6736ZM185.576 29.5026C188.622 29.5026 190.348 31.4301 190.348 34.2591C190.348 37.2124 188.56 39.171 185.296 39.171C184.114 39.171 182.949 39.0155 181.845 38.5337L182.296 37.1347C183.244 37.5078 184.223 37.6632 185.265 37.6632C187.317 37.6632 188.545 36.3109 188.545 34.2591C188.545 32.3472 187.425 31.0104 185.576 31.0104C184.146 31.0104 183.213 31.6943 183.213 32.7668C183.213 33.7927 184.114 34.399 185.482 34.3057L185.436 35.6891C183.026 35.8756 181.41 34.5855 181.41 32.7668C181.41 30.6062 183.228 29.5026 185.576 29.5026ZM200.369 34.1813V39H198.628V34.2591C198.628 32.0984 197.54 31.0104 195.768 31.0104C194.727 31.0104 193.841 31.3523 193.001 31.7876L192.395 30.513C193.67 29.7979 194.882 29.5492 196.064 29.5492C198.551 29.5492 200.369 30.9482 200.369 34.1813ZM209.266 29.5492C211.349 29.5492 212.81 31.0104 212.81 34.0415C212.81 37.2435 211.131 39.1554 208.147 39.1554C205.162 39.1554 203.39 37.2435 203.39 34.0415V29.6736H205.193V34.0415C205.193 36.2798 206.25 37.6166 208.147 37.6166C210.043 37.6166 211.038 36.2798 211.038 34.0415C211.038 32.285 210.385 31.0881 209.048 31.0881C208.38 31.0881 207.976 31.228 207.463 31.4767L207.012 30.1244C207.603 29.7979 208.333 29.5492 209.266 29.5492ZM220.571 35.3161L223.135 38.8446V39H215.006V37.4611H220.182L214.462 29.7358V29.6736H216.467L219.685 34.0881C220.742 33.5285 221.286 32.1762 221.208 29.6736H222.949C223.042 32.8135 222.234 34.5544 220.571 35.3161ZM226.172 31.2124V29.6736H230.12C233.291 29.6736 234.737 31.1503 234.737 34.4456V39H232.934V34.4456C232.934 32.1762 232.094 31.2124 230.12 31.2124H226.172ZM226.281 39V34.0725L228.084 33.8238V39H226.281ZM243.77 29.6736H248.806C251.993 29.6736 253.329 30.9948 253.329 34.1969V39H251.526V34.1969C251.526 32.1606 250.718 31.2124 248.775 31.2124H246.832V36.7927C246.832 38.3782 245.93 39.0933 244.718 39.0933C244.143 39.0933 243.319 38.9845 242.868 38.8135L243.117 37.399C243.412 37.4922 243.723 37.5699 244.143 37.5699C244.796 37.5699 245.044 37.1813 245.044 36.2798V31.2124H243.77V29.6736ZM260.396 39H256.199V37.4611H258.593V32.9067C258.593 31.7409 258.282 31.2124 257.334 31.2124H256.526V29.6736H257.878C259.681 29.6736 260.396 30.5907 260.396 32.4249V39ZM263.719 29.6736H268.755C271.942 29.6736 273.278 30.9948 273.278 34.1969V39H271.475V34.1969C271.475 32.1606 270.667 31.2124 268.724 31.2124H266.781V36.7927C266.781 38.3782 265.879 39.0933 264.667 39.0933C264.092 39.0933 263.268 38.9845 262.817 38.8135L263.066 37.399C263.361 37.4922 263.672 37.5699 264.092 37.5699C264.745 37.5699 264.993 37.1813 264.993 36.2798V31.2124H263.719V29.6736ZM282.021 29.5337C284.555 29.5337 286.249 31.4922 286.249 34.2902C286.249 38.1917 283.902 39.9948 280.311 38.6425L280.716 37.1813C283.234 38.1917 284.555 37.0259 284.555 34.2902C284.555 32.3316 283.513 31.1192 282.099 31.1192C280.591 31.1192 279.752 32.5181 279.177 34.6477L278.011 39H276.223L277.42 34.6632L275.726 29.6736H277.498L278.384 32.4715C279.037 30.7461 280.296 29.5337 282.021 29.5337Z" fill="black"/>
<path d="M301.217 44.7009V33.4565H320.782V44.7009C320.782 45.6945 319.948 46.5 318.919 46.5H303.08C302.051 46.5 301.217 45.6945 301.217 44.7009Z" stroke="#0B0427" stroke-width="2"/>
<path d="M299.043 31.6449V29.8333C299.043 28.8328 299.836 28.0217 300.814 28.0217H321.185C322.163 28.0217 322.956 28.8328 322.956 29.8333V31.6449C322.956 32.6454 322.163 33.4565 321.185 33.4565H300.814C299.836 33.4565 299.043 32.6454 299.043 31.6449Z" stroke="#0B0427" stroke-width="2"/>
<path d="M311 28.0217H307.739C305.938 28.0217 304.479 26.5618 304.479 24.7609C304.479 22.9599 305.938 21.5 307.739 21.5C309.54 21.5 311 22.9599 311 24.7609V28.0217Z" stroke="#0B0427" stroke-width="2"/>
<path d="M311 28.0217H314.261C316.062 28.0217 317.522 26.5618 317.522 24.7609C317.522 22.9599 316.062 21.5 314.261 21.5C312.46 21.5 311 22.9599 311 24.7609V28.0217Z" stroke="#0B0427" stroke-width="2"/>
<path d="M311 29.1086V32.3695" stroke="#0B0427" stroke-width="2" stroke-linecap="round" stroke-linejoin="round"/>
</svg>
