<svg width="32" height="33" viewBox="0 0 32 33" fill="none" xmlns="http://www.w3.org/2000/svg">
<rect width="32" height="32" transform="translate(0 0.5)" fill="white"/>
<path d="M16 4.5L12.2926 12.3999L4 13.668L10 19.8181L8.5831 28.5L16 24.4022L23.4169 28.5L22 19.8181L28 13.668L19.7074 12.4022L16 4.5ZM16 8.38723L18.2415 13.1617L18.6207 13.9727L19.473 14.1027L24.4822 14.8667L20.8558 18.5836L20.2401 19.2155L20.3849 20.1072L21.2415 25.3544L16.7607 22.8764L16 22.4574L15.2393 22.8786L10.7564 25.3566L11.6129 20.1094L11.7578 19.2177L11.142 18.5859L7.51562 14.8689L12.527 14.1027L13.3793 13.9727L13.7585 13.1617L16 8.38723ZM14.9091 13.6904V15.9847H12.7273V18.2789H14.9091V20.5732H17.0909V18.2789H19.2727V15.9847H17.0909V13.6904H14.9091Z" fill="#0B0427"/>
</svg>
