<svg width="32" height="32" viewBox="0 0 32 32" fill="none" xmlns="http://www.w3.org/2000/svg">
<path d="M19.5527 16.1451L29.687 21.6765C30.1038 21.9041 30.1038 22.5027 29.687 22.7299L16.6882 29.8245C16.2591 30.0585 15.7406 30.0585 15.3114 29.8245L2.31261 22.7299C1.89586 22.5027 1.89586 21.9041 2.31261 21.6765L12.4469 16.1451C12.5607 16.0832 12.5607 15.9199 12.4469 15.8576L2.31221 10.3234C1.89586 10.0958 1.89586 9.49765 2.31261 9.27005L15.3114 2.17579C15.7406 1.9414 16.2591 1.9414 16.6882 2.17579L29.6874 9.27005C30.1042 9.49765 30.1042 10.0958 29.6874 10.3234L19.5527 15.8576C19.4389 15.9199 19.4389 16.0832 19.5527 16.1451Z" fill="#101820"/>
</svg>
