<svg width="32" height="33" viewBox="0 0 32 33" fill="none" xmlns="http://www.w3.org/2000/svg">
<path d="M6.2168 26.7009V15.4565H25.782V26.7009C25.782 27.6945 24.9478 28.5 23.9187 28.5H8.08015C7.05105 28.5 6.2168 27.6945 6.2168 26.7009Z" stroke="#0B0427" stroke-width="2"/>
<path d="M4.04297 13.6449V11.8333C4.04297 10.8328 4.83602 10.0217 5.81431 10.0217H26.1847C27.163 10.0217 27.956 10.8328 27.956 11.8333V13.6449C27.956 14.6454 27.163 15.4565 26.1847 15.4565H5.81431C4.83602 15.4565 4.04297 14.6454 4.04297 13.6449Z" stroke="#0B0427" stroke-width="2"/>
<path d="M16.0003 10.0217H12.7394C10.9385 10.0217 9.47852 8.5618 9.47852 6.76087C9.47852 4.95994 10.9385 3.5 12.7394 3.5C14.5403 3.5 16.0003 4.95994 16.0003 6.76087V10.0217Z" stroke="#0B0427" stroke-width="2"/>
<path d="M16 10.0217H19.2609C21.0618 10.0217 22.5217 8.5618 22.5217 6.76087C22.5217 4.95994 21.0618 3.5 19.2609 3.5C17.4599 3.5 16 4.95994 16 6.76087V10.0217Z" stroke="#0B0427" stroke-width="2"/>
<path d="M16 11.1086V14.3695" stroke="#0B0427" stroke-width="2" stroke-linecap="round" stroke-linejoin="round"/>
</svg>
