<svg width="36" height="37" viewBox="0 0 36 37" fill="none" xmlns="http://www.w3.org/2000/svg">
<path d="M28.587 9.2583C30.2121 9.56174 33.1049 10.4383 33.5702 13.7695C32.3497 12.6568 29.4839 11.8342 27.4609 12.5085" stroke="black" stroke-width="1.78037" stroke-linejoin="round"/>
<path d="M24.7905 10.4384C26.3751 7.63997 28.8364 5.61703 31.129 4.96294C29.4837 3.5334 25.8626 4.36955 23.6172 6.61501" stroke="black" stroke-width="1.78037" stroke-linejoin="round"/>
<path d="M22.5241 13.8909C21.425 16.2982 20.953 19.0696 20.953 21.8747C19.3211 20.344 18.3164 18.5706 18.5254 16.4195" stroke="black" stroke-width="1.78037" stroke-linejoin="round"/>
<path d="M31.5049 32.0634C32.5164 21.9487 29.3538 15.5427 22.7793 11.5171" stroke="black" stroke-width="1.78037" stroke-linejoin="round"/>
<path d="M24.0898 15.7317C26.1802 18.3076 29.1472 21.9489 26.7871 32.0636" stroke="black" stroke-width="1.78037" stroke-linejoin="round"/>
<path d="M20.0633 10.1483C16.3209 10.0337 12.774 13.7559 13.6776 17.3433C15.3768 15.3743 18.3236 13.2367 20.5556 12.9265" stroke="black" stroke-width="1.78037" stroke-linejoin="round"/>
<path d="M22.524 9.62214C21.8632 4.94915 17.0081 4.49736 14.2637 6.87768C16.2866 7.3025 17.8443 7.99704 18.2691 8.75902" stroke="black" stroke-width="1.78037" stroke-linejoin="round"/>
<path d="M2.17383 25.3203C3.29993 25.3203 4.41929 26.6689 5.54539 26.6689C6.6715 26.6689 7.79086 25.3203 8.91696 25.3203C10.0431 25.3203 11.1624 26.6689 12.2885 26.6689C13.4146 26.6689 14.534 25.3203 15.6601 25.3203C16.7862 25.3203 17.9056 26.6689 19.0317 26.6689C20.1578 26.6689 21.2771 25.3203 22.4032 25.3203C23.5293 25.3203 24.6487 26.6689 25.7748 26.6689" stroke="black" stroke-width="1.78037" stroke-miterlimit="10"/>
<path d="M2.17383 29.3662C3.29993 29.3662 4.41929 30.7148 5.54539 30.7148C6.6715 30.7148 7.79086 29.3662 8.91696 29.3662C10.0431 29.3662 11.1624 30.7148 12.2885 30.7148C13.4146 30.7148 14.534 29.3662 15.6601 29.3662C16.7862 29.3662 17.9056 30.7148 19.0317 30.7148C20.1578 30.7148 21.2771 29.3662 22.4032 29.3662C23.5293 29.3662 24.6487 30.7148 25.7748 30.7148" stroke="black" stroke-width="1.78037" stroke-miterlimit="10"/>
<path d="M6.895 13.1826C8.75707 13.1826 10.2666 11.6731 10.2666 9.81102C10.2666 7.94895 8.75707 6.43945 6.895 6.43945C5.03294 6.43945 3.52344 7.94895 3.52344 9.81102C3.52344 11.6731 5.03294 13.1826 6.895 13.1826Z" stroke="black" stroke-width="1.78037" stroke-miterlimit="10"/>
</svg>
