<svg width="36" height="37" viewBox="0 0 36 37" fill="none" xmlns="http://www.w3.org/2000/svg">
<path d="M9.11696 32.7429V31.9334C9.11696 31.4794 8.94295 31.0482 8.63276 30.7153L3.9118 25.7144C3.36708 25.1697 3.06445 24.4283 3.06445 23.6566V14.2071C3.06445 13.163 3.9118 12.3157 4.95586 12.3157C5.99992 12.3157 6.84727 13.163 6.84727 14.2071V21.3944" stroke="black" stroke-width="1.78037" stroke-miterlimit="10"/>
<path d="M11.2509 26.6902L7.34699 22.7863C6.68121 22.1205 6.68121 21.0462 7.34699 20.3804C8.01276 19.7147 9.08708 19.7147 9.75286 20.3804L15.5027 26.1303L15.7221 26.3497C16.335 26.9625 16.683 27.8023 16.683 28.6724V32.7427" stroke="black" stroke-width="1.78037" stroke-miterlimit="10"/>
<path d="M27.2734 32.7429V31.9334C27.2734 31.4794 27.4474 31.0482 27.7576 30.7153L32.4786 25.7144C33.0233 25.1697 33.3259 24.4283 33.3259 23.6566V14.2071C33.3259 13.163 32.4786 12.3157 31.4345 12.3157C30.3905 12.3157 29.5431 13.163 29.5431 14.2071V21.3944" stroke="black" stroke-width="1.78037" stroke-miterlimit="10"/>
<path d="M25.1411 26.6902L29.045 22.7863C29.7108 22.1205 29.7108 21.0462 29.045 20.3804C28.3792 19.7147 27.3049 19.7147 26.6391 20.3804L20.8892 26.1303L20.6698 26.3497C20.057 26.9625 19.709 27.8023 19.709 28.6724V32.7427" stroke="black" stroke-width="1.78037" stroke-miterlimit="10"/>
<path d="M18.197 5.52171C16.3207 3.64543 13.2718 3.64543 11.3955 5.52171C9.51921 7.39799 9.51921 10.4469 11.3955 12.3232L18.197 19.1247L24.9985 12.3232C26.8748 10.4469 26.8748 7.39799 24.9985 5.52171C23.1222 3.64543 20.0733 3.64543 18.197 5.52171Z" stroke="black" stroke-width="1.78037" stroke-miterlimit="10"/>
</svg>
