<svg width="36" height="37" viewBox="0 0 36 37" fill="none" xmlns="http://www.w3.org/2000/svg">
<path d="M14.6328 15.9971C14.8955 15.9971 15.6367 15.9783 16.2748 15.9971C18.0574 16.044 21.5478 16.2411 23.9215 16.926C27.1491 17.8549 26.9427 19.8909 26.9427 22.2928C26.9427 24.6947 23.7151 27.4814 21.5008 27.4814C19.2866 27.4814 18.2732 25.8113 17.8698 25.07C17.4663 24.3288 16.6594 22.7525 15.4491 22.7525C14.2387 22.7525 13.4318 24.3288 13.0284 25.07C12.6249 25.8113 11.621 27.4814 9.39735 27.4814C7.17368 27.4814 3.95547 24.7041 3.95547 22.2928C3.95547 19.8815 3.75844 17.8455 6.97665 16.926C10.2042 15.9971 13.6101 15.9971 14.6234 15.9971H14.6328Z" stroke="black" stroke-width="1.78037" stroke-miterlimit="10"/>
<path d="M22.8899 9.23246C24.0092 9.23246 24.9165 8.32511 24.9165 7.20583C24.9165 6.08655 24.0092 5.1792 22.8899 5.1792C21.7706 5.1792 20.8633 6.08655 20.8633 7.20583C20.8633 8.32511 21.7706 9.23246 22.8899 9.23246Z" stroke="black" stroke-width="1.78037" stroke-miterlimit="10" stroke-linecap="round"/>
<path d="M30.3216 7.20561C31.4408 7.20561 32.3482 6.29825 32.3482 5.17897C32.3482 4.0597 31.4408 3.15234 30.3216 3.15234C29.2023 3.15234 28.2949 4.0597 28.2949 5.17897C28.2949 6.29825 29.2023 7.20561 30.3216 7.20561Z" stroke="black" stroke-width="1.78037" stroke-miterlimit="10" stroke-linecap="round"/>
<path d="M18.8359 30.859H22.2137C24.6344 30.859 26.6328 29.0388 26.9143 26.6931" stroke="black" stroke-width="1.78037" stroke-miterlimit="10" stroke-linecap="round"/>
<path d="M25.5918 2.47681V3.82789" stroke="black" stroke-width="1.78037" stroke-miterlimit="10"/>
<path d="M31.6719 9.23218V10.5833" stroke="black" stroke-width="1.78037" stroke-miterlimit="10"/>
<path d="M16.4613 29.5078H14.4347C13.1289 29.5078 12.0703 30.5664 12.0703 31.8722C12.0703 33.178 13.1289 34.2366 14.4347 34.2366H16.4613C17.7672 34.2366 18.8257 33.178 18.8257 31.8722C18.8257 30.5664 17.7672 29.5078 16.4613 29.5078Z" stroke="black" stroke-width="1.78037" stroke-miterlimit="10"/>
<path d="M11.274 18.6992C9.71649 18.8869 8.23405 18.9338 7.30518 19.6093C6.70469 20.0409 6.69531 20.9604 6.69531 22.0769" stroke="black" stroke-width="1.78037" stroke-miterlimit="10" stroke-linecap="round"/>
<path d="M26.9425 15.9971V10.5928C26.9425 10.2175 27.5429 9.91724 28.2935 9.91724C29.0442 9.91724 29.6446 10.2175 29.6446 10.5928V26.8058C29.6446 30.5401 26.6235 33.5613 22.8892 33.5613H18.8359" stroke="black" stroke-width="1.78037" stroke-miterlimit="10" stroke-linecap="round"/>
<path d="M23.5645 11.259V12.6101" stroke="black" stroke-width="1.78037" stroke-miterlimit="10"/>
</svg>
